<mxfile host="app.diagrams.net" modified="2023-10-20T09:34:16.813Z" agent="Mozilla/5.0 (Windows NT 10.0; Win64; x64) AppleWebKit/537.36 (KHTML, like Gecko) Chrome/117.0.0.0 Safari/537.36 Edg/117.0.2045.60" etag="tWv48BJEzB6XL6HL1JMx" version="22.0.5" type="github">
  <diagram id="C5RBs43oDa-KdzZeNtuy" name="Page-1">
    <mxGraphModel dx="475" dy="253" grid="1" gridSize="10" guides="1" tooltips="1" connect="1" arrows="1" fold="1" page="1" pageScale="1" pageWidth="827" pageHeight="1169" math="0" shadow="0">
      <root>
        <mxCell id="WIyWlLk6GJQsqaUBKTNV-0" />
        <mxCell id="WIyWlLk6GJQsqaUBKTNV-1" parent="WIyWlLk6GJQsqaUBKTNV-0" />
        <mxCell id="TEzxAX4yxE7-qYOe67vk-4" value="" style="edgeStyle=orthogonalEdgeStyle;rounded=0;orthogonalLoop=1;jettySize=auto;html=1;" parent="WIyWlLk6GJQsqaUBKTNV-1" source="TEzxAX4yxE7-qYOe67vk-0" target="TEzxAX4yxE7-qYOe67vk-3" edge="1">
          <mxGeometry relative="1" as="geometry" />
        </mxCell>
        <mxCell id="TEzxAX4yxE7-qYOe67vk-0" value="实时&lt;br&gt;RawData数据" style="rounded=0;whiteSpace=wrap;html=1;" parent="WIyWlLk6GJQsqaUBKTNV-1" vertex="1">
          <mxGeometry x="155" y="60" width="120" height="60" as="geometry" />
        </mxCell>
        <mxCell id="TEzxAX4yxE7-qYOe67vk-6" value="" style="edgeStyle=orthogonalEdgeStyle;rounded=0;orthogonalLoop=1;jettySize=auto;html=1;" parent="WIyWlLk6GJQsqaUBKTNV-1" source="TEzxAX4yxE7-qYOe67vk-3" target="TEzxAX4yxE7-qYOe67vk-5" edge="1">
          <mxGeometry relative="1" as="geometry">
            <Array as="points">
              <mxPoint x="590" y="210" />
              <mxPoint x="590" y="265" />
            </Array>
          </mxGeometry>
        </mxCell>
        <mxCell id="TEzxAX4yxE7-qYOe67vk-9" value="" style="edgeStyle=orthogonalEdgeStyle;rounded=0;orthogonalLoop=1;jettySize=auto;html=1;" parent="WIyWlLk6GJQsqaUBKTNV-1" source="TEzxAX4yxE7-qYOe67vk-3" target="TEzxAX4yxE7-qYOe67vk-8" edge="1">
          <mxGeometry relative="1" as="geometry" />
        </mxCell>
        <mxCell id="TEzxAX4yxE7-qYOe67vk-3" value="Window start 校验" style="rhombus;whiteSpace=wrap;html=1;rounded=0;" parent="WIyWlLk6GJQsqaUBKTNV-1" vertex="1">
          <mxGeometry x="140" y="180" width="150" height="60" as="geometry" />
        </mxCell>
        <mxCell id="TEzxAX4yxE7-qYOe67vk-5" value="不计算" style="whiteSpace=wrap;html=1;rounded=0;" parent="WIyWlLk6GJQsqaUBKTNV-1" vertex="1">
          <mxGeometry x="670" y="240" width="60" height="50" as="geometry" />
        </mxCell>
        <mxCell id="TEzxAX4yxE7-qYOe67vk-7" value="当前数据不满足start条件 + start位置前面未出现" style="text;html=1;align=center;verticalAlign=middle;resizable=0;points=[];autosize=1;strokeColor=none;fillColor=none;" parent="WIyWlLk6GJQsqaUBKTNV-1" vertex="1">
          <mxGeometry x="310" y="185" width="280" height="30" as="geometry" />
        </mxCell>
        <mxCell id="TEzxAX4yxE7-qYOe67vk-12" value="" style="edgeStyle=orthogonalEdgeStyle;rounded=0;orthogonalLoop=1;jettySize=auto;html=1;entryX=0;entryY=0.75;entryDx=0;entryDy=0;strokeColor=#FFFF00;strokeWidth=3;" parent="WIyWlLk6GJQsqaUBKTNV-1" source="TEzxAX4yxE7-qYOe67vk-8" target="TEzxAX4yxE7-qYOe67vk-5" edge="1">
          <mxGeometry relative="1" as="geometry">
            <mxPoint x="680" y="390" as="targetPoint" />
            <Array as="points">
              <mxPoint x="590" y="345" />
              <mxPoint x="590" y="277" />
            </Array>
          </mxGeometry>
        </mxCell>
        <mxCell id="TEzxAX4yxE7-qYOe67vk-15" value="" style="edgeStyle=orthogonalEdgeStyle;rounded=0;orthogonalLoop=1;jettySize=auto;html=1;" parent="WIyWlLk6GJQsqaUBKTNV-1" source="TEzxAX4yxE7-qYOe67vk-8" target="TEzxAX4yxE7-qYOe67vk-14" edge="1">
          <mxGeometry relative="1" as="geometry" />
        </mxCell>
        <mxCell id="TEzxAX4yxE7-qYOe67vk-16" value="前面end位置未出现&lt;br&gt;或当前数据满足end条件&lt;br&gt;" style="edgeLabel;html=1;align=center;verticalAlign=middle;resizable=0;points=[];" parent="TEzxAX4yxE7-qYOe67vk-15" vertex="1" connectable="0">
          <mxGeometry x="-0.454" relative="1" as="geometry">
            <mxPoint x="65" y="15" as="offset" />
          </mxGeometry>
        </mxCell>
        <mxCell id="TEzxAX4yxE7-qYOe67vk-8" value="Window end校验" style="rhombus;whiteSpace=wrap;html=1;rounded=0;" parent="WIyWlLk6GJQsqaUBKTNV-1" vertex="1">
          <mxGeometry x="142.5" y="320" width="145" height="50" as="geometry" />
        </mxCell>
        <mxCell id="TEzxAX4yxE7-qYOe67vk-10" value="start位置前面已出现&lt;br&gt;或&lt;br&gt;当前数据满足start条件" style="text;html=1;align=center;verticalAlign=middle;resizable=0;points=[];autosize=1;strokeColor=none;fillColor=none;" parent="WIyWlLk6GJQsqaUBKTNV-1" vertex="1">
          <mxGeometry x="205" y="240" width="140" height="60" as="geometry" />
        </mxCell>
        <mxCell id="TEzxAX4yxE7-qYOe67vk-13" value="前面end位置已出现 + 当前数据不满足end条件" style="text;html=1;align=center;verticalAlign=middle;resizable=0;points=[];autosize=1;strokeColor=none;fillColor=none;" parent="WIyWlLk6GJQsqaUBKTNV-1" vertex="1">
          <mxGeometry x="310" y="320" width="270" height="30" as="geometry" />
        </mxCell>
        <mxCell id="TEzxAX4yxE7-qYOe67vk-14" value="计算" style="whiteSpace=wrap;html=1;rounded=0;" parent="WIyWlLk6GJQsqaUBKTNV-1" vertex="1">
          <mxGeometry x="167.5" y="460" width="95" height="40" as="geometry" />
        </mxCell>
        <mxCell id="TEzxAX4yxE7-qYOe67vk-33" value="&lt;font style=&quot;&quot;&gt;&lt;font style=&quot;font-size: 6px;&quot;&gt;start : 条件a&lt;br style=&quot;&quot;&gt;end : 条件b&lt;/font&gt;&lt;br style=&quot;font-size: 2px;&quot;&gt;&lt;/font&gt;" style="text;html=1;align=center;verticalAlign=middle;resizable=0;points=[];autosize=1;strokeColor=none;fillColor=none;fontSize=2;" parent="WIyWlLk6GJQsqaUBKTNV-1" vertex="1">
          <mxGeometry x="65" y="585" width="90" height="40" as="geometry" />
        </mxCell>
        <mxCell id="TEzxAX4yxE7-qYOe67vk-40" value="" style="endArrow=classic;html=1;rounded=0;" parent="WIyWlLk6GJQsqaUBKTNV-1" edge="1">
          <mxGeometry width="50" height="50" relative="1" as="geometry">
            <mxPoint x="70" y="900" as="sourcePoint" />
            <mxPoint x="220" y="900" as="targetPoint" />
          </mxGeometry>
        </mxCell>
        <mxCell id="TEzxAX4yxE7-qYOe67vk-41" value="" style="endArrow=classic;html=1;rounded=0;" parent="WIyWlLk6GJQsqaUBKTNV-1" edge="1">
          <mxGeometry width="50" height="50" relative="1" as="geometry">
            <mxPoint x="70" y="900" as="sourcePoint" />
            <mxPoint x="70" y="800" as="targetPoint" />
          </mxGeometry>
        </mxCell>
        <mxCell id="TEzxAX4yxE7-qYOe67vk-42" value="" style="endArrow=classic;startArrow=classic;html=1;rounded=0;fillColor=#d5e8d4;strokeColor=#82b366;" parent="WIyWlLk6GJQsqaUBKTNV-1" edge="1">
          <mxGeometry width="50" height="50" relative="1" as="geometry">
            <mxPoint x="110" y="900" as="sourcePoint" />
            <mxPoint x="110" y="830" as="targetPoint" />
          </mxGeometry>
        </mxCell>
        <mxCell id="TEzxAX4yxE7-qYOe67vk-43" value="" style="endArrow=classic;startArrow=classic;html=1;rounded=0;fillColor=#f8cecc;strokeColor=#b85450;" parent="WIyWlLk6GJQsqaUBKTNV-1" edge="1">
          <mxGeometry width="50" height="50" relative="1" as="geometry">
            <mxPoint x="160" y="900" as="sourcePoint" />
            <mxPoint x="160" y="830" as="targetPoint" />
          </mxGeometry>
        </mxCell>
        <mxCell id="TEzxAX4yxE7-qYOe67vk-44" value="" style="endArrow=none;html=1;rounded=0;" parent="WIyWlLk6GJQsqaUBKTNV-1" edge="1">
          <mxGeometry width="50" height="50" relative="1" as="geometry">
            <mxPoint x="90" y="890" as="sourcePoint" />
            <mxPoint x="220" y="880" as="targetPoint" />
            <Array as="points">
              <mxPoint x="110" y="890" />
              <mxPoint x="110" y="880" />
              <mxPoint x="130" y="880" />
              <mxPoint x="130" y="870" />
              <mxPoint x="130" y="860" />
              <mxPoint x="140" y="860" />
              <mxPoint x="140" y="850" />
              <mxPoint x="160" y="850" />
              <mxPoint x="170" y="860" />
              <mxPoint x="190" y="860" />
              <mxPoint x="190" y="840" />
              <mxPoint x="200" y="840" />
            </Array>
          </mxGeometry>
        </mxCell>
        <mxCell id="TEzxAX4yxE7-qYOe67vk-51" value="10" style="edgeLabel;html=1;align=center;verticalAlign=middle;resizable=0;points=[];" parent="TEzxAX4yxE7-qYOe67vk-44" vertex="1" connectable="0">
          <mxGeometry x="0.2312" y="1" relative="1" as="geometry">
            <mxPoint x="-31" y="-9" as="offset" />
          </mxGeometry>
        </mxCell>
        <mxCell id="TEzxAX4yxE7-qYOe67vk-52" value="2" style="edgeLabel;html=1;align=center;verticalAlign=middle;resizable=0;points=[];" parent="TEzxAX4yxE7-qYOe67vk-44" vertex="1" connectable="0">
          <mxGeometry x="-0.6038" relative="1" as="geometry">
            <mxPoint as="offset" />
          </mxGeometry>
        </mxCell>
        <mxCell id="TEzxAX4yxE7-qYOe67vk-45" value="&lt;font style=&quot;font-size: 8px;&quot;&gt;start&amp;nbsp;&lt;br style=&quot;&quot;&gt;a&amp;gt;2&lt;/font&gt;" style="text;html=1;align=center;verticalAlign=middle;resizable=0;points=[];autosize=1;strokeColor=none;fillColor=none;fontSize=5;" parent="WIyWlLk6GJQsqaUBKTNV-1" vertex="1">
          <mxGeometry x="87.5" y="790" width="50" height="40" as="geometry" />
        </mxCell>
        <mxCell id="TEzxAX4yxE7-qYOe67vk-46" value="&lt;font style=&quot;font-size: 8px;&quot;&gt;end&lt;br style=&quot;&quot;&gt;a&amp;gt;10&lt;/font&gt;" style="text;html=1;align=center;verticalAlign=middle;resizable=0;points=[];autosize=1;strokeColor=none;fillColor=none;fontSize=5;" parent="WIyWlLk6GJQsqaUBKTNV-1" vertex="1">
          <mxGeometry x="140" y="790" width="50" height="40" as="geometry" />
        </mxCell>
        <mxCell id="TEzxAX4yxE7-qYOe67vk-53" value="" style="endArrow=classic;startArrow=classic;html=1;rounded=0;fillColor=#f8cecc;strokeColor=#b85450;dashed=1;" parent="WIyWlLk6GJQsqaUBKTNV-1" edge="1">
          <mxGeometry width="50" height="50" relative="1" as="geometry">
            <mxPoint x="200" y="910" as="sourcePoint" />
            <mxPoint x="200" y="830" as="targetPoint" />
          </mxGeometry>
        </mxCell>
        <mxCell id="TEzxAX4yxE7-qYOe67vk-55" value="" style="edgeStyle=orthogonalEdgeStyle;rounded=0;orthogonalLoop=1;jettySize=auto;html=1;" parent="WIyWlLk6GJQsqaUBKTNV-1" source="TEzxAX4yxE7-qYOe67vk-56" target="TEzxAX4yxE7-qYOe67vk-59" edge="1">
          <mxGeometry relative="1" as="geometry" />
        </mxCell>
        <mxCell id="TEzxAX4yxE7-qYOe67vk-56" value="实时&lt;br&gt;RawData数据" style="rounded=0;whiteSpace=wrap;html=1;" parent="WIyWlLk6GJQsqaUBKTNV-1" vertex="1">
          <mxGeometry x="985" y="150" width="120" height="60" as="geometry" />
        </mxCell>
        <mxCell id="TEzxAX4yxE7-qYOe67vk-57" value="" style="edgeStyle=orthogonalEdgeStyle;rounded=0;orthogonalLoop=1;jettySize=auto;html=1;" parent="WIyWlLk6GJQsqaUBKTNV-1" source="TEzxAX4yxE7-qYOe67vk-59" target="TEzxAX4yxE7-qYOe67vk-60" edge="1">
          <mxGeometry relative="1" as="geometry">
            <Array as="points">
              <mxPoint x="1420" y="300" />
              <mxPoint x="1420" y="355" />
            </Array>
          </mxGeometry>
        </mxCell>
        <mxCell id="TEzxAX4yxE7-qYOe67vk-58" value="" style="edgeStyle=orthogonalEdgeStyle;rounded=0;orthogonalLoop=1;jettySize=auto;html=1;" parent="WIyWlLk6GJQsqaUBKTNV-1" source="TEzxAX4yxE7-qYOe67vk-59" target="TEzxAX4yxE7-qYOe67vk-65" edge="1">
          <mxGeometry relative="1" as="geometry" />
        </mxCell>
        <mxCell id="TEzxAX4yxE7-qYOe67vk-59" value="Window start 校验" style="rhombus;whiteSpace=wrap;html=1;rounded=0;" parent="WIyWlLk6GJQsqaUBKTNV-1" vertex="1">
          <mxGeometry x="970" y="270" width="150" height="60" as="geometry" />
        </mxCell>
        <mxCell id="TEzxAX4yxE7-qYOe67vk-60" value="不计算" style="whiteSpace=wrap;html=1;rounded=0;" parent="WIyWlLk6GJQsqaUBKTNV-1" vertex="1">
          <mxGeometry x="1500" y="330" width="60" height="50" as="geometry" />
        </mxCell>
        <mxCell id="TEzxAX4yxE7-qYOe67vk-61" value="当前数据不满足start条件 + start位置前面未出现" style="text;html=1;align=center;verticalAlign=middle;resizable=0;points=[];autosize=1;strokeColor=none;fillColor=none;" parent="WIyWlLk6GJQsqaUBKTNV-1" vertex="1">
          <mxGeometry x="1140" y="275" width="280" height="30" as="geometry" />
        </mxCell>
        <mxCell id="TEzxAX4yxE7-qYOe67vk-62" value="" style="edgeStyle=orthogonalEdgeStyle;rounded=0;orthogonalLoop=1;jettySize=auto;html=1;entryX=0;entryY=0.75;entryDx=0;entryDy=0;strokeColor=#4D4D4D;strokeWidth=3;" parent="WIyWlLk6GJQsqaUBKTNV-1" source="TEzxAX4yxE7-qYOe67vk-65" target="TEzxAX4yxE7-qYOe67vk-60" edge="1">
          <mxGeometry relative="1" as="geometry">
            <mxPoint x="1510" y="480" as="targetPoint" />
            <Array as="points">
              <mxPoint x="1420" y="435" />
              <mxPoint x="1420" y="367" />
            </Array>
          </mxGeometry>
        </mxCell>
        <mxCell id="TEzxAX4yxE7-qYOe67vk-63" value="" style="edgeStyle=orthogonalEdgeStyle;rounded=0;orthogonalLoop=1;jettySize=auto;html=1;" parent="WIyWlLk6GJQsqaUBKTNV-1" source="TEzxAX4yxE7-qYOe67vk-65" target="TEzxAX4yxE7-qYOe67vk-68" edge="1">
          <mxGeometry relative="1" as="geometry" />
        </mxCell>
        <mxCell id="TEzxAX4yxE7-qYOe67vk-64" value="end位置未出现&lt;br&gt;或当前数据满足end条件" style="edgeLabel;html=1;align=center;verticalAlign=middle;resizable=0;points=[];" parent="TEzxAX4yxE7-qYOe67vk-63" vertex="1" connectable="0">
          <mxGeometry x="-0.454" relative="1" as="geometry">
            <mxPoint x="60" y="26" as="offset" />
          </mxGeometry>
        </mxCell>
        <mxCell id="TEzxAX4yxE7-qYOe67vk-65" value="Window end校验" style="rhombus;whiteSpace=wrap;html=1;rounded=0;" parent="WIyWlLk6GJQsqaUBKTNV-1" vertex="1">
          <mxGeometry x="972.5" y="410" width="145" height="50" as="geometry" />
        </mxCell>
        <mxCell id="TEzxAX4yxE7-qYOe67vk-66" value="start位置前面已出现&lt;br&gt;或&lt;br&gt;当前数据满足start条件" style="text;html=1;align=center;verticalAlign=middle;resizable=0;points=[];autosize=1;strokeColor=none;fillColor=none;" parent="WIyWlLk6GJQsqaUBKTNV-1" vertex="1">
          <mxGeometry x="1035" y="330" width="140" height="60" as="geometry" />
        </mxCell>
        <mxCell id="TEzxAX4yxE7-qYOe67vk-67" value="前面end位置已出现 + 当前数据不满足end条件&lt;br&gt;或&lt;br&gt;当前位置不满足end条件" style="text;html=1;align=center;verticalAlign=middle;resizable=0;points=[];autosize=1;strokeColor=none;fillColor=none;" parent="WIyWlLk6GJQsqaUBKTNV-1" vertex="1">
          <mxGeometry x="1160" y="430" width="270" height="60" as="geometry" />
        </mxCell>
        <mxCell id="TEzxAX4yxE7-qYOe67vk-68" value="计算" style="whiteSpace=wrap;html=1;rounded=0;" parent="WIyWlLk6GJQsqaUBKTNV-1" vertex="1">
          <mxGeometry x="997.5" y="585" width="95" height="40" as="geometry" />
        </mxCell>
        <mxCell id="YVrXdMxwtyUh6AKYcpdV-32" value="window start 计算" style="swimlane;" vertex="1" parent="WIyWlLk6GJQsqaUBKTNV-1">
          <mxGeometry x="430" y="650" width="560" height="480" as="geometry">
            <mxRectangle x="470" y="740" width="100" height="30" as="alternateBounds" />
          </mxGeometry>
        </mxCell>
        <mxCell id="YVrXdMxwtyUh6AKYcpdV-35" value="" style="group" vertex="1" connectable="0" parent="YVrXdMxwtyUh6AKYcpdV-32">
          <mxGeometry x="5" y="67" width="600" height="452.5" as="geometry" />
        </mxCell>
        <mxCell id="YVrXdMxwtyUh6AKYcpdV-34" value="" style="group" vertex="1" connectable="0" parent="YVrXdMxwtyUh6AKYcpdV-35">
          <mxGeometry x="10" y="-30" width="520" height="420" as="geometry" />
        </mxCell>
        <mxCell id="YVrXdMxwtyUh6AKYcpdV-0" value="实时&lt;br&gt;RawData数据" style="rounded=0;whiteSpace=wrap;html=1;" vertex="1" parent="YVrXdMxwtyUh6AKYcpdV-34">
          <mxGeometry x="61.50537634408603" width="100.64516129032258" height="43.86422976501304" as="geometry" />
        </mxCell>
        <mxCell id="YVrXdMxwtyUh6AKYcpdV-1" value="之前是否出现过？" style="rhombus;whiteSpace=wrap;html=1;rounded=0;" vertex="1" parent="YVrXdMxwtyUh6AKYcpdV-34">
          <mxGeometry x="34.946236559139784" y="87.72845953002609" width="153.76344086021507" height="65.79634464751959" as="geometry" />
        </mxCell>
        <mxCell id="YVrXdMxwtyUh6AKYcpdV-9" value="使用之前的计算结果" style="rounded=0;whiteSpace=wrap;html=1;" vertex="1" parent="YVrXdMxwtyUh6AKYcpdV-34">
          <mxGeometry x="50.32258064516129" y="197.3890339425587" width="123.01075268817206" height="43.86422976501304" as="geometry" />
        </mxCell>
        <mxCell id="YVrXdMxwtyUh6AKYcpdV-17" value="当前点是否符合Start条件" style="rhombus;whiteSpace=wrap;html=1;" vertex="1" parent="YVrXdMxwtyUh6AKYcpdV-34">
          <mxGeometry x="246.02150537634412" y="76.76240208877284" width="123.01075268817206" height="87.72845953002609" as="geometry" />
        </mxCell>
        <mxCell id="YVrXdMxwtyUh6AKYcpdV-2" value="" style="edgeStyle=orthogonalEdgeStyle;rounded=0;orthogonalLoop=1;jettySize=auto;html=1;" edge="1" parent="YVrXdMxwtyUh6AKYcpdV-34" source="YVrXdMxwtyUh6AKYcpdV-0" target="YVrXdMxwtyUh6AKYcpdV-1">
          <mxGeometry relative="1" as="geometry" />
        </mxCell>
        <mxCell id="YVrXdMxwtyUh6AKYcpdV-18" value="基于当前点的时间计算start" style="whiteSpace=wrap;html=1;" vertex="1" parent="YVrXdMxwtyUh6AKYcpdV-34">
          <mxGeometry x="243.22580645161293" y="208.355091383812" width="128.60215053763443" height="65.79634464751959" as="geometry" />
        </mxCell>
        <mxCell id="YVrXdMxwtyUh6AKYcpdV-4" value="" style="edgeStyle=orthogonalEdgeStyle;rounded=0;orthogonalLoop=1;jettySize=auto;html=1;entryX=0.5;entryY=0;entryDx=0;entryDy=0;" edge="1" parent="YVrXdMxwtyUh6AKYcpdV-34" source="YVrXdMxwtyUh6AKYcpdV-1" target="YVrXdMxwtyUh6AKYcpdV-9">
          <mxGeometry relative="1" as="geometry">
            <mxPoint x="637.4193548387096" y="1030.8093994778067" as="targetPoint" />
          </mxGeometry>
        </mxCell>
        <mxCell id="YVrXdMxwtyUh6AKYcpdV-11" value="Y" style="edgeLabel;html=1;align=center;verticalAlign=middle;resizable=0;points=[];" vertex="1" connectable="0" parent="YVrXdMxwtyUh6AKYcpdV-4">
          <mxGeometry x="-0.2571" y="2" relative="1" as="geometry">
            <mxPoint x="-2" as="offset" />
          </mxGeometry>
        </mxCell>
        <mxCell id="YVrXdMxwtyUh6AKYcpdV-22" value="Redis" style="outlineConnect=0;dashed=0;verticalLabelPosition=bottom;verticalAlign=top;align=center;html=1;shape=mxgraph.aws3.redis;fillColor=#2E73B8;gradientColor=none;" vertex="1" parent="YVrXdMxwtyUh6AKYcpdV-34">
          <mxGeometry x="134.1935483870968" y="350.91383812010434" width="67.0967741935484" height="69.08616187989556" as="geometry" />
        </mxCell>
        <mxCell id="YVrXdMxwtyUh6AKYcpdV-24" style="edgeStyle=orthogonalEdgeStyle;rounded=0;orthogonalLoop=1;jettySize=auto;html=1;entryX=0;entryY=0.5;entryDx=0;entryDy=0;entryPerimeter=0;dashed=1;" edge="1" parent="YVrXdMxwtyUh6AKYcpdV-34" source="YVrXdMxwtyUh6AKYcpdV-1" target="YVrXdMxwtyUh6AKYcpdV-22">
          <mxGeometry relative="1" as="geometry">
            <Array as="points">
              <mxPoint y="120.62663185378588" />
              <mxPoint y="384.90861618798954" />
            </Array>
          </mxGeometry>
        </mxCell>
        <mxCell id="YVrXdMxwtyUh6AKYcpdV-27" value="pull" style="edgeLabel;html=1;align=center;verticalAlign=middle;resizable=0;points=[];" vertex="1" connectable="0" parent="YVrXdMxwtyUh6AKYcpdV-24">
          <mxGeometry x="-0.2414" y="-1" relative="1" as="geometry">
            <mxPoint as="offset" />
          </mxGeometry>
        </mxCell>
        <mxCell id="YVrXdMxwtyUh6AKYcpdV-29" value="跳过&lt;br&gt;不计算" style="whiteSpace=wrap;html=1;" vertex="1" parent="YVrXdMxwtyUh6AKYcpdV-34">
          <mxGeometry x="424.94623655913983" y="93.21148825065274" width="95.05376344086021" height="54.83028720626632" as="geometry" />
        </mxCell>
        <mxCell id="YVrXdMxwtyUh6AKYcpdV-15" value="" style="edgeStyle=orthogonalEdgeStyle;rounded=0;orthogonalLoop=1;jettySize=auto;html=1;entryX=0;entryY=0.5;entryDx=0;entryDy=0;" edge="1" parent="YVrXdMxwtyUh6AKYcpdV-34" source="YVrXdMxwtyUh6AKYcpdV-1" target="YVrXdMxwtyUh6AKYcpdV-17">
          <mxGeometry relative="1" as="geometry">
            <mxPoint x="735.8279569892475" y="932.1148825065275" as="sourcePoint" />
            <mxPoint x="771.6129032258065" y="932.1148825065275" as="targetPoint" />
          </mxGeometry>
        </mxCell>
        <mxCell id="YVrXdMxwtyUh6AKYcpdV-16" value="N" style="edgeLabel;html=1;align=center;verticalAlign=middle;resizable=0;points=[];" vertex="1" connectable="0" parent="YVrXdMxwtyUh6AKYcpdV-15">
          <mxGeometry x="-0.2066" y="-1" relative="1" as="geometry">
            <mxPoint as="offset" />
          </mxGeometry>
        </mxCell>
        <mxCell id="YVrXdMxwtyUh6AKYcpdV-19" value="" style="edgeStyle=orthogonalEdgeStyle;rounded=0;orthogonalLoop=1;jettySize=auto;html=1;" edge="1" parent="YVrXdMxwtyUh6AKYcpdV-34" source="YVrXdMxwtyUh6AKYcpdV-17" target="YVrXdMxwtyUh6AKYcpdV-18">
          <mxGeometry relative="1" as="geometry" />
        </mxCell>
        <mxCell id="YVrXdMxwtyUh6AKYcpdV-20" value="Y" style="edgeLabel;html=1;align=center;verticalAlign=middle;resizable=0;points=[];" vertex="1" connectable="0" parent="YVrXdMxwtyUh6AKYcpdV-19">
          <mxGeometry x="-0.1238" relative="1" as="geometry">
            <mxPoint as="offset" />
          </mxGeometry>
        </mxCell>
        <mxCell id="YVrXdMxwtyUh6AKYcpdV-23" style="edgeStyle=orthogonalEdgeStyle;rounded=0;orthogonalLoop=1;jettySize=auto;html=1;" edge="1" parent="YVrXdMxwtyUh6AKYcpdV-34" source="YVrXdMxwtyUh6AKYcpdV-18" target="YVrXdMxwtyUh6AKYcpdV-22">
          <mxGeometry relative="1" as="geometry">
            <Array as="points">
              <mxPoint x="307.52688172043014" y="307.0496083550914" />
              <mxPoint x="167.741935483871" y="307.0496083550914" />
            </Array>
          </mxGeometry>
        </mxCell>
        <mxCell id="YVrXdMxwtyUh6AKYcpdV-28" value="push" style="edgeLabel;html=1;align=center;verticalAlign=middle;resizable=0;points=[];" vertex="1" connectable="0" parent="YVrXdMxwtyUh6AKYcpdV-23">
          <mxGeometry x="-0.0094" y="-1" relative="1" as="geometry">
            <mxPoint as="offset" />
          </mxGeometry>
        </mxCell>
        <mxCell id="YVrXdMxwtyUh6AKYcpdV-30" value="" style="edgeStyle=orthogonalEdgeStyle;rounded=0;orthogonalLoop=1;jettySize=auto;html=1;" edge="1" parent="YVrXdMxwtyUh6AKYcpdV-34" source="YVrXdMxwtyUh6AKYcpdV-17" target="YVrXdMxwtyUh6AKYcpdV-29">
          <mxGeometry relative="1" as="geometry" />
        </mxCell>
        <mxCell id="YVrXdMxwtyUh6AKYcpdV-31" value="N" style="edgeLabel;html=1;align=center;verticalAlign=middle;resizable=0;points=[];" vertex="1" connectable="0" parent="YVrXdMxwtyUh6AKYcpdV-30">
          <mxGeometry x="-0.0667" relative="1" as="geometry">
            <mxPoint as="offset" />
          </mxGeometry>
        </mxCell>
        <mxCell id="YVrXdMxwtyUh6AKYcpdV-36" value="window end 计算" style="swimlane;" vertex="1" parent="WIyWlLk6GJQsqaUBKTNV-1">
          <mxGeometry x="1070" y="650" width="530" height="480" as="geometry" />
        </mxCell>
        <mxCell id="YVrXdMxwtyUh6AKYcpdV-40" value="" style="edgeStyle=orthogonalEdgeStyle;rounded=0;orthogonalLoop=1;jettySize=auto;html=1;" edge="1" parent="YVrXdMxwtyUh6AKYcpdV-36" source="YVrXdMxwtyUh6AKYcpdV-38" target="YVrXdMxwtyUh6AKYcpdV-39">
          <mxGeometry relative="1" as="geometry" />
        </mxCell>
        <mxCell id="YVrXdMxwtyUh6AKYcpdV-38" value="实时&lt;br&gt;RawData" style="rounded=0;whiteSpace=wrap;html=1;" vertex="1" parent="YVrXdMxwtyUh6AKYcpdV-36">
          <mxGeometry x="50" y="40" width="120" height="60" as="geometry" />
        </mxCell>
        <mxCell id="YVrXdMxwtyUh6AKYcpdV-42" value="" style="edgeStyle=orthogonalEdgeStyle;rounded=0;orthogonalLoop=1;jettySize=auto;html=1;entryX=0;entryY=0.5;entryDx=0;entryDy=0;" edge="1" parent="YVrXdMxwtyUh6AKYcpdV-36" source="YVrXdMxwtyUh6AKYcpdV-39" target="YVrXdMxwtyUh6AKYcpdV-63">
          <mxGeometry relative="1" as="geometry" />
        </mxCell>
        <mxCell id="YVrXdMxwtyUh6AKYcpdV-44" value="N" style="edgeLabel;html=1;align=center;verticalAlign=middle;resizable=0;points=[];" vertex="1" connectable="0" parent="YVrXdMxwtyUh6AKYcpdV-42">
          <mxGeometry x="-0.1651" y="-1" relative="1" as="geometry">
            <mxPoint as="offset" />
          </mxGeometry>
        </mxCell>
        <mxCell id="YVrXdMxwtyUh6AKYcpdV-46" value="" style="edgeStyle=orthogonalEdgeStyle;rounded=0;orthogonalLoop=1;jettySize=auto;html=1;entryX=0.5;entryY=0;entryDx=0;entryDy=0;" edge="1" parent="YVrXdMxwtyUh6AKYcpdV-36" source="YVrXdMxwtyUh6AKYcpdV-39" target="YVrXdMxwtyUh6AKYcpdV-48">
          <mxGeometry relative="1" as="geometry">
            <mxPoint x="110" y="260" as="targetPoint" />
          </mxGeometry>
        </mxCell>
        <mxCell id="YVrXdMxwtyUh6AKYcpdV-47" value="Y" style="edgeLabel;html=1;align=center;verticalAlign=middle;resizable=0;points=[];" vertex="1" connectable="0" parent="YVrXdMxwtyUh6AKYcpdV-46">
          <mxGeometry x="-0.1155" relative="1" as="geometry">
            <mxPoint as="offset" />
          </mxGeometry>
        </mxCell>
        <mxCell id="YVrXdMxwtyUh6AKYcpdV-39" value="start位置&lt;br&gt;已出现" style="rhombus;whiteSpace=wrap;html=1;rounded=0;" vertex="1" parent="YVrXdMxwtyUh6AKYcpdV-36">
          <mxGeometry x="55" y="150" width="110" height="60" as="geometry" />
        </mxCell>
        <mxCell id="YVrXdMxwtyUh6AKYcpdV-41" value="直接计算" style="whiteSpace=wrap;html=1;rounded=0;" vertex="1" parent="YVrXdMxwtyUh6AKYcpdV-36">
          <mxGeometry x="430" y="280" width="60" height="50" as="geometry" />
        </mxCell>
        <mxCell id="YVrXdMxwtyUh6AKYcpdV-50" value="" style="edgeStyle=orthogonalEdgeStyle;rounded=0;orthogonalLoop=1;jettySize=auto;html=1;" edge="1" parent="YVrXdMxwtyUh6AKYcpdV-36" source="YVrXdMxwtyUh6AKYcpdV-48" target="YVrXdMxwtyUh6AKYcpdV-49">
          <mxGeometry relative="1" as="geometry" />
        </mxCell>
        <mxCell id="YVrXdMxwtyUh6AKYcpdV-51" value="Y" style="edgeLabel;html=1;align=center;verticalAlign=middle;resizable=0;points=[];" vertex="1" connectable="0" parent="YVrXdMxwtyUh6AKYcpdV-50">
          <mxGeometry x="-0.1328" y="-1" relative="1" as="geometry">
            <mxPoint as="offset" />
          </mxGeometry>
        </mxCell>
        <mxCell id="YVrXdMxwtyUh6AKYcpdV-53" value="" style="edgeStyle=orthogonalEdgeStyle;rounded=0;orthogonalLoop=1;jettySize=auto;html=1;" edge="1" parent="YVrXdMxwtyUh6AKYcpdV-36" source="YVrXdMxwtyUh6AKYcpdV-48" target="YVrXdMxwtyUh6AKYcpdV-52">
          <mxGeometry relative="1" as="geometry" />
        </mxCell>
        <mxCell id="YVrXdMxwtyUh6AKYcpdV-54" value="N" style="edgeLabel;html=1;align=center;verticalAlign=middle;resizable=0;points=[];" vertex="1" connectable="0" parent="YVrXdMxwtyUh6AKYcpdV-53">
          <mxGeometry x="-0.2216" relative="1" as="geometry">
            <mxPoint as="offset" />
          </mxGeometry>
        </mxCell>
        <mxCell id="YVrXdMxwtyUh6AKYcpdV-48" value="&amp;nbsp;当前位置是否满足end条件" style="rhombus;whiteSpace=wrap;html=1;" vertex="1" parent="YVrXdMxwtyUh6AKYcpdV-36">
          <mxGeometry x="50" y="270" width="120" height="70" as="geometry" />
        </mxCell>
        <mxCell id="YVrXdMxwtyUh6AKYcpdV-49" value="使用当前位置作为end&lt;br&gt;并刷新end时间线" style="whiteSpace=wrap;html=1;" vertex="1" parent="YVrXdMxwtyUh6AKYcpdV-36">
          <mxGeometry x="50" y="380" width="120" height="60" as="geometry" />
        </mxCell>
        <mxCell id="YVrXdMxwtyUh6AKYcpdV-56" value="" style="edgeStyle=orthogonalEdgeStyle;rounded=0;orthogonalLoop=1;jettySize=auto;html=1;exitX=1;exitY=0.5;exitDx=0;exitDy=0;" edge="1" parent="YVrXdMxwtyUh6AKYcpdV-36" source="YVrXdMxwtyUh6AKYcpdV-52" target="YVrXdMxwtyUh6AKYcpdV-41">
          <mxGeometry relative="1" as="geometry">
            <mxPoint x="450" y="305" as="targetPoint" />
          </mxGeometry>
        </mxCell>
        <mxCell id="YVrXdMxwtyUh6AKYcpdV-58" value="N" style="edgeLabel;html=1;align=center;verticalAlign=middle;resizable=0;points=[];" vertex="1" connectable="0" parent="YVrXdMxwtyUh6AKYcpdV-56">
          <mxGeometry x="-0.0261" y="-1" relative="1" as="geometry">
            <mxPoint as="offset" />
          </mxGeometry>
        </mxCell>
        <mxCell id="YVrXdMxwtyUh6AKYcpdV-60" value="" style="edgeStyle=orthogonalEdgeStyle;rounded=0;orthogonalLoop=1;jettySize=auto;html=1;" edge="1" parent="YVrXdMxwtyUh6AKYcpdV-36" source="YVrXdMxwtyUh6AKYcpdV-52" target="YVrXdMxwtyUh6AKYcpdV-59">
          <mxGeometry relative="1" as="geometry" />
        </mxCell>
        <mxCell id="YVrXdMxwtyUh6AKYcpdV-61" value="Y" style="edgeLabel;html=1;align=center;verticalAlign=middle;resizable=0;points=[];" vertex="1" connectable="0" parent="YVrXdMxwtyUh6AKYcpdV-60">
          <mxGeometry x="0.0224" y="3" relative="1" as="geometry">
            <mxPoint x="-3" as="offset" />
          </mxGeometry>
        </mxCell>
        <mxCell id="YVrXdMxwtyUh6AKYcpdV-52" value="之前是否有满足&lt;br&gt;end的位置" style="rhombus;whiteSpace=wrap;html=1;" vertex="1" parent="YVrXdMxwtyUh6AKYcpdV-36">
          <mxGeometry x="240" y="270" width="130" height="70" as="geometry" />
        </mxCell>
        <mxCell id="YVrXdMxwtyUh6AKYcpdV-59" value="使用历史数据作为end" style="whiteSpace=wrap;html=1;" vertex="1" parent="YVrXdMxwtyUh6AKYcpdV-36">
          <mxGeometry x="245" y="380" width="120" height="60" as="geometry" />
        </mxCell>
        <mxCell id="YVrXdMxwtyUh6AKYcpdV-63" value="跳过&lt;br&gt;不计算" style="rounded=0;whiteSpace=wrap;html=1;" vertex="1" parent="YVrXdMxwtyUh6AKYcpdV-36">
          <mxGeometry x="245" y="155" width="70" height="50" as="geometry" />
        </mxCell>
        <mxCell id="YVrXdMxwtyUh6AKYcpdV-73" value="" style="group" vertex="1" connectable="0" parent="WIyWlLk6GJQsqaUBKTNV-1">
          <mxGeometry x="70" y="640" width="150" height="80" as="geometry" />
        </mxCell>
        <mxCell id="TEzxAX4yxE7-qYOe67vk-17" value="" style="endArrow=openThin;html=1;rounded=1;strokeWidth=1;endFill=0;" parent="YVrXdMxwtyUh6AKYcpdV-73" edge="1">
          <mxGeometry width="50" height="50" relative="1" as="geometry">
            <mxPoint y="80" as="sourcePoint" />
            <mxPoint x="150" y="80" as="targetPoint" />
          </mxGeometry>
        </mxCell>
        <mxCell id="TEzxAX4yxE7-qYOe67vk-18" value="" style="endArrow=openThin;html=1;rounded=0;endFill=0;" parent="YVrXdMxwtyUh6AKYcpdV-73" edge="1">
          <mxGeometry width="50" height="50" relative="1" as="geometry">
            <mxPoint y="80" as="sourcePoint" />
            <mxPoint as="targetPoint" />
          </mxGeometry>
        </mxCell>
        <mxCell id="TEzxAX4yxE7-qYOe67vk-19" value="" style="endArrow=none;startArrow=none;html=1;rounded=0;fillColor=#d5e8d4;strokeColor=#82b366;dashed=1;endFill=0;startFill=0;" parent="YVrXdMxwtyUh6AKYcpdV-73" edge="1">
          <mxGeometry width="50" height="50" relative="1" as="geometry">
            <mxPoint x="39.480000000000004" y="80" as="sourcePoint" />
            <mxPoint x="39.480000000000004" y="10" as="targetPoint" />
          </mxGeometry>
        </mxCell>
        <mxCell id="TEzxAX4yxE7-qYOe67vk-20" value="" style="endArrow=none;startArrow=none;html=1;rounded=0;fillColor=#f8cecc;strokeColor=#b85450;endFill=0;startFill=0;dashed=1;" parent="YVrXdMxwtyUh6AKYcpdV-73" edge="1">
          <mxGeometry width="50" height="50" relative="1" as="geometry">
            <mxPoint x="90" y="80" as="sourcePoint" />
            <mxPoint x="90" y="10" as="targetPoint" />
          </mxGeometry>
        </mxCell>
        <mxCell id="TEzxAX4yxE7-qYOe67vk-32" value="" style="endArrow=none;html=1;rounded=0;dashed=1;dashPattern=1 1;" parent="YVrXdMxwtyUh6AKYcpdV-73" edge="1">
          <mxGeometry width="50" height="50" relative="1" as="geometry">
            <mxPoint x="20" y="70" as="sourcePoint" />
            <mxPoint x="140" y="50" as="targetPoint" />
            <Array as="points">
              <mxPoint x="40" y="70" />
              <mxPoint x="50" y="60" />
              <mxPoint x="60" y="40" />
              <mxPoint x="70" y="40" />
              <mxPoint x="80" y="40" />
              <mxPoint x="90" y="30" />
              <mxPoint x="100" y="30" />
            </Array>
          </mxGeometry>
        </mxCell>
        <mxCell id="YVrXdMxwtyUh6AKYcpdV-67" value="" style="curved=1;endArrow=classic;html=1;rounded=0;fillColor=#d5e8d4;strokeColor=#82b366;" edge="1" parent="YVrXdMxwtyUh6AKYcpdV-73">
          <mxGeometry width="50" height="50" relative="1" as="geometry">
            <mxPoint x="20" y="20" as="sourcePoint" />
            <mxPoint x="40" y="70" as="targetPoint" />
            <Array as="points">
              <mxPoint x="20" y="50" />
            </Array>
          </mxGeometry>
        </mxCell>
        <mxCell id="YVrXdMxwtyUh6AKYcpdV-68" value="a" style="edgeLabel;html=1;align=center;verticalAlign=middle;resizable=0;points=[];" vertex="1" connectable="0" parent="YVrXdMxwtyUh6AKYcpdV-67">
          <mxGeometry x="-0.08" y="1" relative="1" as="geometry">
            <mxPoint as="offset" />
          </mxGeometry>
        </mxCell>
        <mxCell id="YVrXdMxwtyUh6AKYcpdV-69" value="" style="curved=1;endArrow=classic;html=1;rounded=0;fillColor=#f8cecc;strokeColor=#b85450;" edge="1" parent="YVrXdMxwtyUh6AKYcpdV-73">
          <mxGeometry width="50" height="50" relative="1" as="geometry">
            <mxPoint x="110" y="60" as="sourcePoint" />
            <mxPoint x="90" y="30" as="targetPoint" />
            <Array as="points">
              <mxPoint x="110" y="50" />
            </Array>
          </mxGeometry>
        </mxCell>
        <mxCell id="YVrXdMxwtyUh6AKYcpdV-70" value="b" style="edgeLabel;html=1;align=center;verticalAlign=middle;resizable=0;points=[];" vertex="1" connectable="0" parent="YVrXdMxwtyUh6AKYcpdV-69">
          <mxGeometry x="-0.0195" y="-1" relative="1" as="geometry">
            <mxPoint as="offset" />
          </mxGeometry>
        </mxCell>
        <mxCell id="YVrXdMxwtyUh6AKYcpdV-71" value="" style="endArrow=classic;startArrow=classic;html=1;rounded=0;" edge="1" parent="YVrXdMxwtyUh6AKYcpdV-73">
          <mxGeometry width="50" height="50" relative="1" as="geometry">
            <mxPoint x="40" y="23" as="sourcePoint" />
            <mxPoint x="90" y="23" as="targetPoint" />
            <Array as="points">
              <mxPoint x="60" y="23" />
            </Array>
          </mxGeometry>
        </mxCell>
      </root>
    </mxGraphModel>
  </diagram>
</mxfile>
